<?xml version="1.0" standalone="no"?>
<!DOCTYPE svg PUBLIC "-//W3C//DTD SVG 20010904//EN"
 "http://www.w3.org/TR/2001/REC-SVG-20010904/DTD/svg10.dtd">
<svg version="1.0" xmlns="http://www.w3.org/2000/svg"
 width="300.000000pt" height="300.000000pt" viewBox="0 0 300.000000 300.000000"
 preserveAspectRatio="xMidYMid meet">

<g transform="translate(0.000000,300.000000) scale(0.100000,-0.100000)"
fill="#000000" stroke="none">
<path d="M60 1470 l0 -1430 1430 0 1430 0 0 40 0 40 -1390 0 -1390 0 0 1390 0
1390 -40 0 -40 0 0 -1430z"/>
<path d="M430 1568 c-69 -33 -127 -61 -129 -63 -2 -2 3 -20 10 -39 l14 -34
125 58 125 57 75 -34 c41 -20 98 -46 127 -59 l52 -23 73 36 c40 19 96 45 123
58 l51 22 126 -58 126 -58 73 35 c41 20 97 46 124 59 l51 22 126 -58 126 -58
73 35 c41 20 97 46 124 59 l51 22 126 -58 126 -59 78 39 c44 21 107 50 141 66
l62 27 -17 35 c-19 40 -12 42 -157 -27 l-111 -52 -119 57 c-68 31 -129 54
-140 52 -11 -3 -70 -28 -130 -57 l-111 -52 -119 57 c-68 31 -129 54 -140 52
-11 -3 -70 -28 -130 -57 l-111 -52 -119 57 c-68 31 -129 54 -140 52 -11 -3
-70 -28 -130 -57 l-111 -52 -118 56 c-66 31 -126 56 -135 55 -9 0 -72 -28
-141 -61z"/>
</g>
</svg>
