<?xml version="1.0" standalone="no"?>
<!DOCTYPE svg PUBLIC "-//W3C//DTD SVG 20010904//EN"
 "http://www.w3.org/TR/2001/REC-SVG-20010904/DTD/svg10.dtd">
<svg version="1.0" xmlns="http://www.w3.org/2000/svg"
 width="300.000000pt" height="300.000000pt" viewBox="0 0 300.000000 300.000000"
 preserveAspectRatio="xMidYMid meet">

<g transform="translate(0.000000,300.000000) scale(0.100000,-0.100000)"
fill="#000000" stroke="none">
<path d="M60 1470 l0 -1430 1430 0 1430 0 0 40 0 40 -1390 0 -1390 0 0 1390 0
1390 -40 0 -40 0 0 -1430z"/>
<path d="M257 2723 c-27 -4 -28 -6 -22 -46 4 -23 89 -559 189 -1192 l182
-1150 1077 -3 1077 -2 0 35 0 35 -1044 0 -1044 0 -6 27 c-3 16 -85 525 -181
1133 -200 1271 -184 1170 -193 1169 -4 -1 -20 -4 -35 -6z"/>
</g>
</svg>
