<?xml version="1.0" standalone="no"?>
<!DOCTYPE svg PUBLIC "-//W3C//DTD SVG 20010904//EN"
 "http://www.w3.org/TR/2001/REC-SVG-20010904/DTD/svg10.dtd">
<svg version="1.0" xmlns="http://www.w3.org/2000/svg"
 width="300.000000pt" height="300.000000pt" viewBox="0 0 300.000000 300.000000"
 preserveAspectRatio="xMidYMid meet">

<g transform="translate(0.000000,300.000000) scale(0.100000,-0.100000)"
fill="#000000" stroke="none">
<path d="M60 1470 l0 -1430 1430 0 1430 0 0 40 0 40 -1390 0 -1390 0 0 1390 0
1390 -40 0 -40 0 0 -1430z"/>
<path d="M320 2301 c-16 -5 -25 -14 -24 -27 0 -10 83 -350 184 -755 l184 -737
31 -11 c17 -6 34 -11 37 -11 3 0 79 173 169 385 90 212 166 381 170 377 3 -4
32 -67 64 -139 55 -126 60 -133 94 -143 19 -5 36 -8 37 -7 2 1 42 149 90 327
47 179 89 328 93 333 4 4 24 -156 45 -355 46 -454 41 -422 78 -436 17 -6 34
-9 38 -7 4 2 36 73 71 157 47 111 65 146 68 128 2 -14 27 -245 55 -514 l51
-489 38 -13 c20 -7 38 -10 40 -6 2 4 55 177 118 384 63 208 117 378 120 378 4
0 32 -58 64 -129 59 -133 66 -141 123 -141 12 0 22 4 22 10 0 15 129 743 133
746 2 2 36 -19 77 -46 41 -28 80 -50 85 -50 6 0 18 13 28 29 l17 29 -116 77
c-108 71 -117 75 -130 58 -32 -42 -44 -94 -95 -385 -30 -170 -56 -308 -60
-308 -3 0 -32 59 -64 130 -32 72 -60 132 -64 134 -3 2 -20 -2 -36 -8 -30 -13
-34 -23 -129 -337 -99 -327 -115 -373 -116 -333 0 30 -100 967 -102 969 -2 1
-21 0 -43 -3 l-40 -4 -59 -140 c-32 -76 -60 -137 -62 -135 -4 3 -94 830 -94
860 0 4 -18 7 -40 7 -22 0 -40 -2 -40 -4 0 -4 -197 -742 -203 -760 -2 -5 -32
55 -66 133 -35 78 -68 144 -72 147 -5 3 -20 -1 -35 -9 -22 -12 -50 -70 -170
-353 -79 -186 -149 -350 -155 -364 -8 -20 -12 -22 -19 -10 -4 8 -83 322 -176
698 -93 375 -173 682 -179 681 -5 -1 -21 -4 -35 -8z"/>
</g>
</svg>
