<?xml version="1.0" standalone="no"?>
<!DOCTYPE svg PUBLIC "-//W3C//DTD SVG 20010904//EN"
 "http://www.w3.org/TR/2001/REC-SVG-20010904/DTD/svg10.dtd">
<svg version="1.0" xmlns="http://www.w3.org/2000/svg"
 width="300.000000pt" height="300.000000pt" viewBox="0 0 300.000000 300.000000"
 preserveAspectRatio="xMidYMid meet">

<g transform="translate(0.000000,300.000000) scale(0.100000,-0.100000)"
fill="#000000" stroke="none">
<path d="M60 1470 l0 -1430 1430 0 1430 0 0 40 0 40 -1390 0 -1390 0 0 1390 0
1390 -40 0 -40 0 0 -1430z"/>
<path d="M316 2467 c-21 -17 -27 -28 -20 -38 5 -9 229 -277 498 -597 l488
-582 23 17 c12 10 107 90 210 177 l188 160 26 -31 c14 -17 151 -180 304 -362
l278 -331 -85 6 -85 7 -7 -27 c-12 -48 -5 -51 147 -64 78 -6 145 -10 147 -8 2
2 8 68 14 146 12 155 10 163 -42 158 -23 -3 -25 -7 -30 -70 -3 -36 -7 -69 -10
-72 -5 -5 -535 621 -607 716 -15 21 -33 37 -39 38 -6 0 -38 -24 -70 -52 -33
-29 -115 -100 -184 -157 -69 -57 -134 -113 -146 -123 -21 -18 -23 -16 -480
529 -252 301 -466 555 -474 565 -14 17 -16 17 -44 -5z"/>
</g>
</svg>
