<?xml version="1.0" standalone="no"?>
<!DOCTYPE svg PUBLIC "-//W3C//DTD SVG 20010904//EN"
 "http://www.w3.org/TR/2001/REC-SVG-20010904/DTD/svg10.dtd">
<svg version="1.0" xmlns="http://www.w3.org/2000/svg"
 width="300.000000pt" height="300.000000pt" viewBox="0 0 300.000000 300.000000"
 preserveAspectRatio="xMidYMid meet">

<g transform="translate(0.000000,300.000000) scale(0.100000,-0.100000)"
fill="#000000" stroke="none">
<path d="M60 1470 l0 -1430 1430 0 1430 0 0 40 0 40 -1390 0 -1390 0 0 1390 0
1390 -40 0 -40 0 0 -1430z"/>
<path d="M2327 2437 l-118 -10 3 -41 c2 -22 8 -40 13 -40 6 1 52 5 104 8 l94
7 -50 -58 c-27 -32 -226 -268 -442 -526 l-392 -467 -122 102 c-67 56 -143 122
-169 147 -26 25 -51 46 -56 46 -5 0 -119 -131 -253 -291 -134 -160 -357 -426
-496 -592 l-252 -300 30 -28 c25 -24 31 -26 43 -14 7 8 212 254 456 545 244
292 451 538 460 548 16 18 24 13 174 -115 218 -184 192 -171 235 -118 28 34
359 430 858 1024 13 16 26 27 28 24 3 -2 8 -44 11 -92 l7 -87 41 3 c37 3 41 5
39 28 -1 14 -7 89 -14 168 l-12 142 -51 -2 c-28 0 -104 -5 -169 -11z"/>
</g>
</svg>
